<?xml version="1.0" encoding="UTF-8"?>
<svg width="149px" height="191px" viewBox="0 0 149 191" version="1.1" xmlns="http://www.w3.org/2000/svg" xmlns:xlink="http://www.w3.org/1999/xlink">
    <title>Slice</title>
    <g id="0.-Welcome-Page" stroke="none" stroke-width="1" fill="none" fill-rule="evenodd">
        <rect id="Rectangle-Copy-17" stroke="#000000" fill="#FFFFFF" x="0.5" y="0.5" width="148" height="190" rx="5"></rect>
        <path style="stroke:none;fill-rule:nonzero;fill:rgb(0%,0%,0%);fill-opacity:1;" d="M 44 86.238281 L 16.5 86.238281 C 16.234375 86.238281 15.984375 86.136719 15.800781 85.953125 L 2.050781 72.203125 C 1.863281 72.015625 1.761719 71.765625 1.761719 71.5 L 1.761719 30.25 C 1.761719 29.703125 2.203125 29.261719 2.746094 29.261719 L 15.527344 29.25 C 16.054688 14.003906 28.625 1.761719 44 1.761719 C 59.710938 1.761719 72.488281 14.539062 72.488281 30.25 C 72.488281 37.527344 69.777344 44.386719 64.832031 49.679688 L 85.953125 70.796875 L 84.546875 72.203125 L 63.429688 51.082031 C 58.378906 55.804688 51.898438 58.488281 44.988281 58.722656 L 44.988281 85.25 C 44.988281 85.796875 44.546875 86.238281 44 86.238281 Z M 17.488281 84.261719 L 43.011719 84.261719 L 43.011719 58.722656 C 28.082031 58.210938 16.03125 46.160156 15.527344 31.230469 L 3.738281 31.238281 L 3.738281 70.511719 L 16.5 70.511719 C 17.046875 70.511719 17.488281 70.953125 17.488281 71.5 Z M 5.140625 72.488281 L 15.511719 82.859375 L 15.511719 72.488281 Z M 44 3.738281 C 29.382812 3.738281 17.488281 15.632812 17.488281 30.25 C 17.488281 44.867188 29.382812 56.761719 44 56.761719 C 51.078125 56.761719 57.734375 54 62.742188 48.992188 C 67.75 43.984375 70.511719 37.324219 70.511719 30.25 C 70.511719 15.632812 58.617188 3.738281 44 3.738281 Z M 26.339844 38.246094 L 24.625 37.253906 L 32.140625 24.246094 C 32.335938 23.910156 32.691406 23.710938 33.097656 23.757812 C 33.488281 23.796875 33.816406 24.0625 33.9375 24.4375 L 36.628906 32.699219 L 43.132812 21.496094 C 43.316406 21.179688 43.679688 20.988281 44.035156 21.003906 C 44.402344 21.019531 44.730469 21.242188 44.886719 21.578125 L 50.234375 33.011719 L 59.648438 17.359375 L 61.347656 18.382812 L 50.972656 35.625 C 50.785156 35.9375 50.4375 36.121094 50.074219 36.105469 C 49.710938 36.085938 49.382812 35.867188 49.226562 35.535156 L 43.898438 24.132812 L 37.230469 35.617188 C 37.035156 35.953125 36.660156 36.144531 36.269531 36.101562 C 35.882812 36.0625 35.554688 35.796875 35.433594 35.421875 L 32.746094 27.167969 Z M 26.339844 38.246094 "/>
        <path d="M149,126 L149,186 C149,188.761424 146.761424,191 144,191 L5,191 C2.23857625,191 3.38176876e-16,188.761424 0,186 L0,126 L149,126 Z" id="Combined-Shape-Copy-13" fill="#00539A"></path>
        <text id="My-Assessment-Reques-Copy-4" font-family="IBMPlexSans-SemiBold, IBM Plex Sans" font-size="16" font-weight="500" fill="#FFFFFF">
            <tspan x="37" y="164">  Dashboard </tspan>
        </text>
    </g>
</svg>