<svg id="icon" xmlns="http://www.w3.org/2000/svg" viewBox="0 0 32 32"><defs><style>.cls-1{fill:#d8d8d8;}.cls-2{fill:none;}</style></defs><path class="cls-1" d="M12,4A5,5,0,1,1,7,9a5,5,0,0,1,5-5m0-2a7,7,0,1,0,7,7A7,7,0,0,0,12,2Z"/><path class="cls-1" d="M22,30H20V25a5,5,0,0,0-5-5H9a5,5,0,0,0-5,5v5H2V25a7,7,0,0,1,7-7h6a7,7,0,0,1,7,7Z"/><polygon class="cls-1" points="25 16.18 22.41 13.59 21 15 25 19 32 12 30.59 10.59 25 16.18"/><rect id="_Transparent_Rectangle_" data-name=" Transparent Rectangle " class="cls-2" width="32" height="32"/></svg>