<?xml version="1.0" encoding="UTF-8"?>
<svg width="149px" height="191px" viewBox="0 0 149 191" version="1.1" xmlns="http://www.w3.org/2000/svg" xmlns:xlink="http://www.w3.org/1999/xlink">
    <title>Slice</title>
    <g id="0.-Welcome-Page" stroke="none" stroke-width="1" fill="none" fill-rule="evenodd">
        <rect id="Rectangle-Copy-17" stroke="#000000" fill="#FFFFFF" x="0.5" y="0.5" width="148" height="190" rx="5"></rect>
        <path d="M149,126 L149,186 C149,188.761424 146.761424,191 144,191 L5,191 C2.23857625,191 3.38176876e-16,188.761424 0,186 L0,126 L149,126 Z" id="Combined-Shape-Copy-13" fill="#00539A"></path>
        <text id="My-Assessment-Reques-Copy-4" font-family="IBMPlexSans-SemiBold, IBM Plex Sans" font-size="16" font-weight="500" fill="#FFFFFF">
            <tspan x="41.78" y="154">  Visualizar </tspan>
            <tspan x="8.78" y="174">Meus Formulários</tspan>
        </text>
        <path d="M62,89 L76,89 L62,89 Z M62,85 L86,85 L62,85 Z M70,51 L78,51 L78,35 L70,35 L70,51 Z M70,45 L54,45 L54,95 L94,95 L94,45 L78,45 M62,81 C62,75.504 66.184,70.9 71.308,69.686 C68.988,68.654 67.37,66.332 67.37,63.63 C67.37,59.968 70.338,57 74,57 C77.662,57 80.63,59.968 80.63,63.63 C80.63,66.332 79.01,68.654 76.692,69.686 C81.816,70.9 86,75.504 86,81 L62,81 Z" id="Stroke-1-Copy-9" stroke="#000000" stroke-width="1.44" stroke-linejoin="round"></path>
    </g>
</svg>