<?xml version="1.0" encoding="UTF-8"?>
<svg width="149px" height="191px" viewBox="0 0 149 191" version="1.1" xmlns="http://www.w3.org/2000/svg" xmlns:xlink="http://www.w3.org/1999/xlink">
    <title>Slice</title>
    <g id="0.-Welcome-Page" stroke="none" stroke-width="1" fill="none" fill-rule="evenodd">
        <rect id="Rectangle-Copy-16" stroke="#000000" fill="#FFFFFF" x="0.5" y="0.5" width="148" height="190" rx="5"></rect>
        <path d="M93,36 L93,48 L105,48 L93,36 Z M57,81.5 L57,96 L105,96 L105,48 L93,36 L57,36 L57,50.5 M61,50 C52.164,50 45,57.164 45,66 C45,74.836 52.164,82 61,82 C69.836,82 77,74.836 77,66 C77,57.164 69.836,50 61,50 Z M69,66 L53,66 L69,66 Z M61,58 L61,74 L61,58 Z" id="Stroke-1-Copy-8" stroke="#000000" stroke-width="1.44" stroke-linejoin="round"></path>
        <path d="M149,126 L149,186 C149,188.761424 146.761424,191 144,191 L5,191 C2.23857625,191 3.38176876e-16,188.761424 0,186 L0,126 L149,126 Z" id="Combined-Shape-Copy-12" fill="#00539A"></path>
        <text id="New-Request-Copy-5" font-family="IBMPlexSans-SemiBold, IBM Plex Sans" font-size="16" font-weight="500" fill="#FFFFFF">
            <tspan x="25" y="165">New Request</tspan>
        </text>
    </g>
</svg>