<?xml version="1.0" encoding="UTF-8"?>
<svg width="149px" height="191px" viewBox="0 0 149 191" version="1.1" xmlns="http://www.w3.org/2000/svg" xmlns:xlink="http://www.w3.org/1999/xlink">
    <title>Slice</title>
    <g id="0.-Welcome-Page" stroke="none" stroke-width="1" fill="none" fill-rule="evenodd">
        <rect id="Rectangle-Copy-18" stroke="#000000" fill="#FFFFFF" x="0.5" y="0.5" width="148" height="190" rx="5"></rect>
        <path d="M149,126 L149,186 C149,188.761424 146.761424,191 144,191 L5,191 C2.23857625,191 3.38176876e-16,188.761424 0,186 L0,126 L149,126 Z" id="Combined-Shape-Copy-14" fill="#00539A"></path>
        <text id="Admin-Requests-Copy-3" font-family="IBMPlexSans-SemiBold, IBM Plex Sans" font-size="16" font-weight="500" fill="#FFFFFF">
            <tspan x="50.308" y="154">Admin </tspan>
            <tspan x="39.78" y="174">Requests</tspan>
        </text>
        <g id="Group-5-Copy-3" transform="translate(50.000000, 34.000000)" stroke="#000000" stroke-width="1.44">
            <path d="M0.72,60.72 L0.72,50.244 C0.72,38.902 8.592,29.404 19.168,26.898 C14.38,24.766 11.038,19.978 11.038,14.4 C11.038,6.844 17.164,0.72 24.72,0.72 C32.276,0.72 38.402,6.844 38.402,14.4 C38.402,19.978 35.06,24.766 30.272,26.898 C40.848,29.404 48.72,38.902 48.72,50.244 L48.72,60.72" id="Stroke-1" stroke-linejoin="round"></path>
            <polyline id="Stroke-3" points="32.72 44.72 22.72 54.72 18.72 50.72"></polyline>
        </g>
    </g>
</svg>