<?xml version="1.0" encoding="utf-8"?>
<!-- Generator: Adobe Illustrator 24.0.0, SVG Export Plug-In . SVG Version: 6.00 Build 0)  -->
<svg version="1.1" id="icon" xmlns="http://www.w3.org/2000/svg" xmlns:xlink="http://www.w3.org/1999/xlink" x="0px" y="0px"
	 viewBox="0 0 32 32" style="enable-background:new 0 0 32 32;" xml:space="preserve">
<style type="text/css">
	.st0{fill:#FFFFFF;}
	.st1{fill:none;}
</style>
<title>document--add</title>
<path class="st0" d="M25.7,9.3l-7-7C18.5,2.1,18.3,2,18,2H8C6.9,2,6,2.9,6,4v24c0,1.1,0.9,2,2,2h16c1.1,0,2-0.9,2-2V10
	C26,9.7,25.9,9.5,25.7,9.3z M18,4.4l5.6,5.6H18V4.4z M24,28H8V4h8v6c0,1.1,0.9,2,2,2h6V28z"/>
<polygon class="st0" points="21,19 17,19 17,15 15,15 15,19 11,19 11,21 15,21 15,25 17,25 17,21 21,21 "/>
<rect id="_Transparent_Rectangle_" class="st1" width="32" height="32"/>
</svg>
