<?xml version="1.0" encoding="utf-8"?>
<!-- Generator: Adobe Illustrator 24.0.0, SVG Export Plug-In . SVG Version: 6.00 Build 0)  -->
<svg version="1.1" id="icon" xmlns="http://www.w3.org/2000/svg" xmlns:xlink="http://www.w3.org/1999/xlink" x="0px" y="0px"
	 viewBox="0 0 32 32" style="enable-background:new 0 0 32 32;" xml:space="preserve">
<style type="text/css">
	.st0{fill:#FFFFFF;}
	.st1{fill:none;}
</style>
<title>identification</title>
<path class="st0" d="M28,6v20H4V6H28 M28,4H4C2.9,4,2,4.9,2,6v20c0,1.1,0.9,2,2,2h24c1.1,0,2-0.9,2-2V6C30,4.9,29.1,4,28,4z"/>
<rect x="6" y="10" class="st0" width="7" height="2"/>
<rect x="6" y="14" class="st0" width="4" height="2"/>
<path class="st0" d="M23,18h-6c-1.7,0-3,1.3-3,3v2h2v-2c0-0.6,0.4-1,1-1h6c0.6,0,1,0.4,1,1v2h2v-2C26,19.3,24.7,18,23,18z"/>
<path class="st0" d="M20,17c2.2,0,4-1.8,4-4s-1.8-4-4-4s-4,1.8-4,4S17.8,17,20,17z M20,11c1.1,0,2,0.9,2,2s-0.9,2-2,2s-2-0.9-2-2
	S18.9,11,20,11z"/>
<rect id="_Transparent_Rectangle_" class="st1" width="32" height="32"/>
</svg>
