<?xml version="1.0" encoding="UTF-8"?>
<svg xmlns="http://www.w3.org/2000/svg" xmlns:xlink="http://www.w3.org/1999/xlink" width="100px" height="100px" viewBox="0 0 100 100" version="1.1">
<g id="surface1">
<path style=" stroke:none;fill-rule:nonzero;fill:rgb(0%,0%,0%);fill-opacity:1;" d="M 50 98 L 18.75 98 C 18.449219 98 18.164062 97.882812 17.957031 97.671875 L 2.332031 82.046875 C 2.117188 81.835938 2 81.550781 2 81.25 L 2 34.375 C 2 33.753906 2.503906 33.25 3.121094 33.25 L 17.644531 33.242188 C 18.242188 15.914062 32.527344 2 50 2 C 67.851562 2 82.375 16.523438 82.375 34.375 C 82.375 42.644531 79.292969 50.441406 73.671875 56.457031 L 97.671875 80.453125 L 96.078125 82.046875 L 72.082031 58.046875 C 66.335938 63.414062 58.976562 66.460938 51.121094 66.726562 L 51.121094 96.875 C 51.125 97.496094 50.621094 98 50 98 Z M 19.875 95.75 L 48.875 95.75 L 48.875 66.730469 C 31.914062 66.148438 18.21875 52.457031 17.644531 35.492188 L 4.25 35.5 L 4.25 80.125 L 18.75 80.125 C 19.371094 80.125 19.875 80.628906 19.875 81.25 Z M 5.839844 82.375 L 17.625 94.160156 L 17.625 82.375 Z M 50 4.25 C 33.390625 4.25 19.875 17.765625 19.875 34.375 C 19.875 50.984375 33.390625 64.5 50 64.5 C 58.042969 64.5 65.605469 61.367188 71.296875 55.675781 C 76.988281 49.984375 80.125 42.414062 80.125 34.375 C 80.125 17.765625 66.609375 4.25 50 4.25 Z M 29.929688 43.460938 L 27.984375 42.335938 L 36.523438 27.554688 C 36.742188 27.167969 37.148438 26.945312 37.613281 26.996094 C 38.054688 27.042969 38.429688 27.34375 38.566406 27.769531 L 41.625 37.160156 L 49.015625 24.429688 C 49.226562 24.066406 49.636719 23.851562 50.039062 23.867188 C 50.460938 23.886719 50.832031 24.136719 51.007812 24.519531 L 57.085938 37.511719 L 67.785156 19.726562 L 69.710938 20.886719 L 57.925781 40.484375 C 57.710938 40.835938 57.316406 41.046875 56.902344 41.027344 C 56.488281 41.007812 56.117188 40.757812 55.941406 40.382812 L 49.882812 27.425781 L 42.308594 40.472656 C 42.085938 40.855469 41.660156 41.074219 41.214844 41.023438 C 40.773438 40.976562 40.402344 40.679688 40.265625 40.253906 L 37.210938 30.871094 Z M 29.929688 43.460938 "/>
</g>
</svg>
